<svg width="50" height="50" viewBox="0 0 50 50" fill="none" xmlns="http://www.w3.org/2000/svg">
<path fill-rule="evenodd" clip-rule="evenodd" d="M39.5833 4.16675H10.4167C6.87499 4.16675 4.16666 6.87508 4.16666 10.4167V39.5834C4.16666 43.1251 6.87499 45.8334 10.4167 45.8334H39.5833C43.125 45.8334 45.8333 43.1251 45.8333 39.5834V10.4167C45.8333 6.87508 43.125 4.16675 39.5833 4.16675ZM8.33332 10.4167C8.33332 9.16675 9.16666 8.33342 10.4167 8.33342H39.5833C40.8333 8.33342 41.6667 9.16675 41.6667 10.4167V26.2501L34.7917 19.3751C33.9583 18.5417 32.7083 18.5417 31.875 19.3751L9.79166 41.4584C8.95832 41.2501 8.33332 40.4168 8.33332 39.5834V10.4167ZM15.4166 41.6666H39.5833C40.8333 41.6666 41.6666 40.8333 41.6666 39.5833V32.0833L33.3333 23.75L15.4166 41.6666ZM17.7083 22.9167C20.625 22.9167 22.9167 20.6251 22.9167 17.7084C22.9167 14.7917 20.625 12.5001 17.7083 12.5001C14.7917 12.5001 12.5 14.7917 12.5 17.7084C12.5 20.6251 14.7917 22.9167 17.7083 22.9167ZM18.75 17.7084C18.75 17.0834 18.3333 16.6667 17.7083 16.6667C17.0833 16.6667 16.6667 17.0834 16.6667 17.7084C16.6667 18.3334 17.0833 18.7501 17.7083 18.7501C18.3333 18.7501 18.75 18.3334 18.75 17.7084Z" fill="#BDBDBD"/>
<mask id="mask0" mask-type="alpha" maskUnits="userSpaceOnUse" x="4" y="4" width="42" height="42">
<path fill-rule="evenodd" clip-rule="evenodd" d="M39.5833 4.16675H10.4167C6.87499 4.16675 4.16666 6.87508 4.16666 10.4167V39.5834C4.16666 43.1251 6.87499 45.8334 10.4167 45.8334H39.5833C43.125 45.8334 45.8333 43.1251 45.8333 39.5834V10.4167C45.8333 6.87508 43.125 4.16675 39.5833 4.16675ZM8.33332 10.4167C8.33332 9.16675 9.16666 8.33342 10.4167 8.33342H39.5833C40.8333 8.33342 41.6667 9.16675 41.6667 10.4167V26.2501L34.7917 19.3751C33.9583 18.5417 32.7083 18.5417 31.875 19.3751L9.79166 41.4584C8.95832 41.2501 8.33332 40.4168 8.33332 39.5834V10.4167ZM15.4166 41.6666H39.5833C40.8333 41.6666 41.6666 40.8333 41.6666 39.5833V32.0833L33.3333 23.75L15.4166 41.6666ZM17.7083 22.9167C20.625 22.9167 22.9167 20.6251 22.9167 17.7084C22.9167 14.7917 20.625 12.5001 17.7083 12.5001C14.7917 12.5001 12.5 14.7917 12.5 17.7084C12.5 20.6251 14.7917 22.9167 17.7083 22.9167ZM18.75 17.7084C18.75 17.0834 18.3333 16.6667 17.7083 16.6667C17.0833 16.6667 16.6667 17.0834 16.6667 17.7084C16.6667 18.3334 17.0833 18.7501 17.7083 18.7501C18.3333 18.7501 18.75 18.3334 18.75 17.7084Z" fill="white"/>
</mask>
<g mask="url(#mask0)">
<path fill-rule="evenodd" clip-rule="evenodd" d="M0 0H50V50H0V0Z" fill="#BDBDBD"/>
</g>
</svg>
