<svg height="512" viewBox="0 0 512 512" width="512" xmlns="http://www.w3.org/2000/svg" xmlns:xlink="http://www.w3.org/1999/xlink"><linearGradient id="New_Gradient_Swatch_14" gradientUnits="userSpaceOnUse" x1="272" x2="404" y1="368" y2="236"><stop offset=".015" stop-color="#a6a6b9"/><stop offset="1" stop-color="#cacad5"/></linearGradient><linearGradient id="New_Gradient_Swatch_1" gradientUnits="userSpaceOnUse" x1="130.638" x2="381.362" y1="578.638" y2="327.915"><stop offset=".004" stop-color="#f1cccd"/><stop offset="1" stop-color="#faeeee"/></linearGradient><linearGradient id="New_Gradient_Swatch_20" gradientUnits="userSpaceOnUse" x1="198" x2="314" y1="526" y2="410"><stop offset=".011" stop-color="#fce6aa"/><stop offset="1" stop-color="#fdf3d4"/></linearGradient><linearGradient id="New_Gradient_Swatch_11" gradientUnits="userSpaceOnUse" x1="313.165" x2="443.888" y1="521.165" y2="390.441"><stop offset=".011" stop-color="#60c6be"/><stop offset="1" stop-color="#80d1cb"/></linearGradient><linearGradient id="New_Gradient_Swatch_11-2" gradientTransform="matrix(-1 0 0 1 512 0)" x1="441.362" x2="315.691" xlink:href="#New_Gradient_Swatch_11" y1="518.638" y2="392.967"/><linearGradient id="New_Gradient_Swatch_12" gradientUnits="userSpaceOnUse" x1="145.684" x2="207.671" y1="466.316" y2="404.329"><stop offset=".011" stop-color="#80d1cb"/><stop offset="1" stop-color="#bfe8e5"/></linearGradient><linearGradient id="New_Gradient_Swatch_12-2" gradientTransform="matrix(-1 0 0 1 512 0)" x1="230.678" x2="122.678" xlink:href="#New_Gradient_Swatch_12" y1="489.322" y2="381.322"/><linearGradient id="New_Gradient_Swatch_17" gradientUnits="userSpaceOnUse" x1="327.979" x2="378.448" y1="229.234" y2="178.766"><stop offset=".004" stop-color="#e7aaab"/><stop offset="1" stop-color="#f1cccd"/></linearGradient><linearGradient id="New_Gradient_Swatch_17-2" x1="137.552" x2="180.021" xlink:href="#New_Gradient_Swatch_17" y1="225.234" y2="182.766"/><linearGradient id="New_Gradient_Swatch_1-2" x1="162.989" x2="349.011" xlink:href="#New_Gradient_Swatch_1" y1="263.034" y2="77.011"/><linearGradient id="New_Gradient_Swatch_14-2" x1="162.898" x2="349.102" xlink:href="#New_Gradient_Swatch_14" y1="194.898" y2="8.695"/><g id="_03-professor" data-name="03-professor"><g id="linear_color" data-name="linear color"><path d="m360 192s0 72 16 96 80 48 40 120l-152-48v-168z" fill="url(#New_Gradient_Swatch_14)"/><path d="m304 352v-96h-96v96l-137.195 41.159a32 32 0 0 0 -22.805 30.65v72.191h416v-72.191a32 32 0 0 0 -22.805-30.65z" fill="url(#New_Gradient_Swatch_1)"/><path d="m168 440h176v56h-176z" fill="url(#New_Gradient_Swatch_20)"/><path d="m441.2 393.159-96.689-29.007-56.511 131.848h176v-72.191a32 32 0 0 0 -22.8-30.65z" fill="url(#New_Gradient_Swatch_11)"/><path d="m70.805 393.159 96.689-29.007 56.506 131.848h-176v-72.191a32 32 0 0 1 22.805-30.65z" fill="url(#New_Gradient_Swatch_11-2)"/><path d="m167.494 364.152-39.494 11.848-8 56 55.368 64h48.632z" fill="url(#New_Gradient_Swatch_12)"/><path d="m344.506 364.152 39.494 11.848 8 56-55.368 64h-48.632z" fill="url(#New_Gradient_Swatch_12-2)"/><path d="m320 208a32 32 0 0 1 32-32c17.673 0 32-1.673 32 16s-14.327 48-32 48a32 32 0 0 1 -32-32z" fill="url(#New_Gradient_Swatch_17)"/><path d="m128 192c0-17.673 14.327-16 32-16a32 32 0 0 1 0 64c-17.673 0-32-30.327-32-48z" fill="url(#New_Gradient_Swatch_17-2)"/><path d="m160 80v144c0 61.856 64 96 96 96s96-34.144 96-96v-144z" fill="url(#New_Gradient_Swatch_1-2)"/><path d="m400 88c0-56-56-72-80-72s-64 16-64 16-40-16-64-16-80 16-80 72 48 104 48 104v-48s0-48 32-48 64 24 64 24 32-24 64-24 32 48 32 48v48s48-48 48-104z" fill="url(#New_Gradient_Swatch_14-2)"/><path d="m444.648 381.666-5.2-1.561c9.453-53.617-30.189-71.808-53.463-98.761-2.659-3.99-7.413-14.369-10.735-39.911 13.215-13.041 20.75-35.227 20.75-49.433 0-10.638-3.665-18.274-10.921-22.861 13.261-20.57 26.921-49.446 26.921-81.139 0-28.438-12.615-51.632-36.481-67.075-19.307-12.492-41.974-16.925-55.519-16.925-21.3 0-52.463 10.842-64 15.148-11.537-4.306-42.7-15.148-64-15.148-13.545 0-36.212 4.433-55.519 16.925-23.866 15.443-36.481 38.637-36.481 67.075 0 31.693 13.66 60.569 26.921 81.139-7.256 4.587-10.921 12.223-10.921 22.861 0 18.924 13.372 52.006 35.734 58.768 6.575 22.978 22.331 44.209 44.266 59.431v32.873l-128.649 38.595a43.727 43.727 0 0 0 -31.351 42.143v72.19a12 12 0 0 0 24 0v-72.19a20.128 20.128 0 0 1 14.248-19.156l39.217-11.765-5.344 37.411a12 12 0 0 0 2.8 9.549l55.37 64a12 12 0 0 0 18.15-15.7l-51.792-59.864 6.142-42.994 21.886-6.566 52.289 122a12 12 0 1 0 22.06-9.454l-16.826-39.271h75.6l-16.831 39.273a12 12 0 1 0 22.058 9.454l52.287-122 21.889 6.566 6.143 42.994-51.791 59.865a12 12 0 1 0 18.15 15.7l55.368-64a12 12 0 0 0 2.805-9.548l-5.345-37.414 39.216 11.765a20.128 20.128 0 0 1 14.251 19.155v72.19a12 12 0 0 0 24 0v-72.19a43.728 43.728 0 0 0 -31.352-42.144zm-28.381-8.514-100.267-30.08v-32.872c17.307-12.006 30.862-27.878 38.92-45.194 2.846 12.988 6.521 22.79 11.1 29.652 18.3 24.974 56.489 40.009 50.247 78.494zm-141.737-217.152h-37.06a51.85 51.85 0 0 0 -65.47-7.783c.226-2.293-1.44-39 20-40.217 27.5 0 56.525 21.4 56.8 21.6a12 12 0 0 0 14.4 0c8.011-6.008 33.83-21.6 56.8-21.6 21.474 1.275 19.755 37.862 20 40.217a51.85 51.85 0 0 0 -65.47 7.783zm-46.53 36a28 28 0 1 1 -28-28 28.032 28.032 0 0 1 28 28zm84-28a28 28 0 1 1 -28 28 28.032 28.032 0 0 1 28-28zm59.677 25.053c1.413 8.614-2.858 19.508-7.677 27.883v-20.18c1.781-1.964 4.135-4.658 6.844-7.99a5.618 5.618 0 0 1 .833.287zm-222.158-147.978c35.142-23.31 71.691-9.253 102.024 2.067a12.012 12.012 0 0 0 8.911 0c10.546-4.211 41.799-15.142 59.546-15.142 80.637 6.42 81.21 74.442 44 129.409v-13.409c0-20.753-9.2-60-44-60-26.344 0-51.91 13.874-64 21.52-12.09-7.646-37.657-21.52-64-21.52-34.8 0-44 39.247-44 60v13.409c-21.307-29.938-41.246-91.198 1.519-116.334zm-9.2 147.978a5.711 5.711 0 0 1 .833-.288c2.709 3.333 5.063 6.027 6.844 7.991v20.172c-4.477-7.473-8-17.32-8-24.928a10.082 10.082 0 0 1 .327-2.947zm32.946 48.675c-.08-.418-.137-.844-.209-1.265a51.971 51.971 0 0 0 77.531-56.463h10.826a51.979 51.979 0 0 0 77.527 56.463c-.072.42-.129.847-.209 1.264v.008.015c-8.56 45.45-59.141 70.25-82.731 70.25s-74.17-24.8-82.731-70.272zm34.647 190.272-24.094-56.217 27.63-8.289a12 12 0 0 0 8.552-11.494v-28.433c12.545 5.377 25.17 8.433 36 8.433s23.455-3.056 36-8.433v28.433a12 12 0 0 0 8.552 11.494l27.628 8.289-24.093 56.217z"/></g></g></svg>